<svg aria-labelledby="logo" focusable="false" role="img" id="b55de9f7-d416-4b65-8bae-5f07e30c4cdb" data-name="FiveOaks" xmlns="http://www.w3.org/2000/svg" viewBox="0 0 553.24 132">
<title id="logo">Five Oaks logo</title>
<path d="M0,41H59.75v4.5H5.87V79.39H54.42v4.49H5.87v41.67H0Z" fill="#46210f"/>
<path d="M69.06,40.8h6.41v84.63H69.06Z" fill="#46210f"/>
<path d="M119.81,125.24h-6.59L84.19,41h6.17L116.45,118h.28L141.13,41H147Z" fill="#46210f"/>
<path d="M155.3,40.91h63.08v4.51h-57.3v34H215v4.51H161.08v37.27h58v4.51H155.3Z" fill="#46210f"/>
<path d="M277.13,8.39s-1.18-3.29.41-5.53-.1-2.86-.1-2.86L263.36,7.52s-.87,1.55,1.35,1.64,5.91,1.69,8,11.52h0a3.3,3.3,0,0,0,6.56-.5A43.8,43.8,0,0,0,277.13,8.39Z" fill="#46210f"/>
<path d="M499.64,104.41a13.61,13.61,0,0,0,4.24,4.78,18.66,18.66,0,0,0,6.21,2.72,30.56,30.56,0,0,0,7.38.89,40.86,40.86,0,0,0,5.53-.41,19.85,19.85,0,0,0,5.53-1.6,12.08,12.08,0,0,0,4.31-3.25,8,8,0,0,0,1.72-5.26,7.25,7.25,0,0,0-2.28-5.56,18.12,18.12,0,0,0-6-3.55A62.46,62.46,0,0,0,518,90.69c-3.11-.71-6.27-1.49-9.46-2.36a87.15,87.15,0,0,1-9.59-2.9A33.27,33.27,0,0,1,490.55,81a21.24,21.24,0,0,1-6-6.8,20.06,20.06,0,0,1-2.27-9.87A21.38,21.38,0,0,1,485.2,53a25.26,25.26,0,0,1,7.56-8,33.4,33.4,0,0,1,10.57-4.73,46.46,46.46,0,0,1,11.8-1.54,57.73,57.73,0,0,1,13.22,1.48,33.49,33.49,0,0,1,11.25,4.79,24.38,24.38,0,0,1,7.8,8.45A25.08,25.08,0,0,1,550.29,66H531.61A14.56,14.56,0,0,0,530,59.72a10.75,10.75,0,0,0-3.75-3.91,16.51,16.51,0,0,0-5.35-2,34.55,34.55,0,0,0-6.58-.59,23.21,23.21,0,0,0-4.67.48,12.8,12.8,0,0,0-4.24,1.65,10.43,10.43,0,0,0-3.13,3A7.7,7.7,0,0,0,501,62.79a7.3,7.3,0,0,0,1,4,8.79,8.79,0,0,0,3.87,2.84,51,51,0,0,0,8,2.6q5.1,1.31,13.34,3.31c1.64.31,3.91.89,6.82,1.71a33.49,33.49,0,0,1,8.67,4,25.82,25.82,0,0,1,7.44,7.27q3.14,4.56,3.13,11.65a25.07,25.07,0,0,1-2.33,10.76,23.46,23.46,0,0,1-6.95,8.57,33.92,33.92,0,0,1-11.43,5.62,56.1,56.1,0,0,1-15.8,2,57.62,57.62,0,0,1-14.07-1.72A35.84,35.84,0,0,1,490.61,120a26,26,0,0,1-11.25-22.82h18.69A15.08,15.08,0,0,0,499.64,104.41Z" fill="#cb4f19"/>
<path d="M317,74.7V73.47A125.57,125.57,0,0,0,303.32,70c-.19,6.31-1.93,29-16.82,40.88-2.49,2-5.45,3.59-7.51,5.39a7.61,7.61,0,0,1-3,1.88v0h-.13v0a7.3,7.3,0,0,1-3.22-1.89c-2.07-1.8-5-3.41-7.51-5.39-10.59-8.45-14.52-22.35-16-32a66,66,0,0,1-.82-8.24c0-.18,0-.36,0-.52a123.23,123.23,0,0,0-13.87,3.59v.92s-.84,32.94,25.27,48.91c3.74,2.28,8.17,4.13,11.28,6.2a12.17,12.17,0,0,0,4.83,2.17v0h.2v0a12.56,12.56,0,0,0,4.46-2.16c3.1-2.07,7.53-3.92,11.27-6.2C317.89,107.64,317,74.7,317,74.7Z" fill="#cb4f19"/>
<polygon points="347.71 41.23 314.52 125.64 333.94 125.64 357.47 61.33 380.67 125.64 400.33 125.64 367.5 41.23 347.71 41.23" fill="#cb4f19"/>
<polyline points="350.7 107.32 364.19 107.32 369.07 93.48 345.7 93.49" fill="#cb4f19"/>
<rect x="403.73" y="41.17" width="19.16" height="84.47" fill="#cb4f19"/>
<polygon points="457.33 41.17 427.49 71.61 427.49 93.67 480.97 41.17 457.33 41.17" fill="#cb4f19"/>
<polygon points="449.75 78.27 436.49 91.28 460.53 125.58 484.75 125.58 449.75 78.27" fill="#cb4f19"/>
<path d="M324.14,66.78l0-.44c-1.67-21.35-19.57-38.52-42.31-41h0c-.9-.09-1.79-.17-2.7-.22l-.21,0c-.91,0-1.82-.07-2.74-.07H276c-.95,0-1.89,0-2.83.08l-.23,0C249,26.51,229.78,44.18,228,66.34l0,.44a.45.45,0,0,0,0,.11,1.81,1.81,0,0,0,0,.23A2.87,2.87,0,0,0,230.88,70a2.82,2.82,0,0,0,1.2-.27h0a130.88,130.88,0,0,1,33.5-6.59v0c3.42-.24,6.9-.38,10.44-.38,2,0,3.93.05,5.87.12h0A132.94,132.94,0,0,1,320,69.71h0a2.86,2.86,0,0,0,4.07-2.6,1.79,1.79,0,0,0,0-.23S324.15,66.82,324.14,66.78Z" fill="#46210f"/>
</svg>  